<svg xmlns="http://www.w3.org/2000/svg" viewBox="0 0 1200 24" width="1200" height="24" role="presentation"><circle cx="20" cy="12" r="5" fill="#ffd43b" stroke="#1c1b33" stroke-width="2"/><circle cx="40" cy="12" r="5" fill="#36d6a0" stroke="#1c1b33" stroke-width="2"/><circle cx="60" cy="12" r="5" fill="#8fd3ff" stroke="#1c1b33" stroke-width="2"/><circle cx="80" cy="12" r="5" fill="#c3b1ff" stroke="#1c1b33" stroke-width="2"/><circle cx="100" cy="12" r="5" fill="#ff6a3d" stroke="#1c1b33" stroke-width="2"/><circle cx="120" cy="12" r="5" fill="#ff9aa2" stroke="#1c1b33" stroke-width="2"/><circle cx="140" cy="12" r="5" fill="#ffd43b" stroke="#1c1b33" stroke-width="2"/><circle cx="160" cy="12" r="5" fill="#36d6a0" stroke="#1c1b33" stroke-width="2"/><circle cx="180" cy="12" r="5" fill="#8fd3ff" stroke="#1c1b33" stroke-width="2"/><circle cx="200" cy="12" r="5" fill="#c3b1ff" stroke="#1c1b33" stroke-width="2"/><circle cx="220" cy="12" r="5" fill="#ff6a3d" stroke="#1c1b33" stroke-width="2"/><circle cx="240" cy="12" r="5" fill="#ff9aa2" stroke="#1c1b33" stroke-width="2"/><circle cx="260" cy="12" r="5" fill="#ffd43b" stroke="#1c1b33" stroke-width="2"/><circle cx="280" cy="12" r="5" fill="#36d6a0" stroke="#1c1b33" stroke-width="2"/><circle cx="300" cy="12" r="5" fill="#8fd3ff" stroke="#1c1b33" stroke-width="2"/><circle cx="320" cy="12" r="5" fill="#c3b1ff" stroke="#1c1b33" stroke-width="2"/><circle cx="340" cy="12" r="5" fill="#ff6a3d" stroke="#1c1b33" stroke-width="2"/><circle cx="360" cy="12" r="5" fill="#ff9aa2" stroke="#1c1b33" stroke-width="2"/><circle cx="380" cy="12" r="5" fill="#ffd43b" stroke="#1c1b33" stroke-width="2"/><circle cx="400" cy="12" r="5" fill="#36d6a0" stroke="#1c1b33" stroke-width="2"/><circle cx="420" cy="12" r="5" fill="#8fd3ff" stroke="#1c1b33" stroke-width="2"/><circle cx="440" cy="12" r="5" fill="#c3b1ff" stroke="#1c1b33" stroke-width="2"/><circle cx="460" cy="12" r="5" fill="#ff6a3d" stroke="#1c1b33" stroke-width="2"/><circle cx="480" cy="12" r="5" fill="#ff9aa2" stroke="#1c1b33" stroke-width="2"/><circle cx="500" cy="12" r="5" fill="#ffd43b" stroke="#1c1b33" stroke-width="2"/><circle cx="520" cy="12" r="5" fill="#36d6a0" stroke="#1c1b33" stroke-width="2"/><circle cx="540" cy="12" r="5" fill="#8fd3ff" stroke="#1c1b33" stroke-width="2"/><circle cx="560" cy="12" r="5" fill="#c3b1ff" stroke="#1c1b33" stroke-width="2"/><circle cx="580" cy="12" r="5" fill="#ff6a3d" stroke="#1c1b33" stroke-width="2"/><circle cx="600" cy="12" r="5" fill="#ff9aa2" stroke="#1c1b33" stroke-width="2"/><circle cx="620" cy="12" r="5" fill="#ffd43b" stroke="#1c1b33" stroke-width="2"/><circle cx="640" cy="12" r="5" fill="#36d6a0" stroke="#1c1b33" stroke-width="2"/><circle cx="660" cy="12" r="5" fill="#8fd3ff" stroke="#1c1b33" stroke-width="2"/><circle cx="680" cy="12" r="5" fill="#c3b1ff" stroke="#1c1b33" stroke-width="2"/><circle cx="700" cy="12" r="5" fill="#ff6a3d" stroke="#1c1b33" stroke-width="2"/><circle cx="720" cy="12" r="5" fill="#ff9aa2" stroke="#1c1b33" stroke-width="2"/><circle cx="740" cy="12" r="5" fill="#ffd43b" stroke="#1c1b33" stroke-width="2"/><circle cx="760" cy="12" r="5" fill="#36d6a0" stroke="#1c1b33" stroke-width="2"/><circle cx="780" cy="12" r="5" fill="#8fd3ff" stroke="#1c1b33" stroke-width="2"/><circle cx="800" cy="12" r="5" fill="#c3b1ff" stroke="#1c1b33" stroke-width="2"/><circle cx="820" cy="12" r="5" fill="#ff6a3d" stroke="#1c1b33" stroke-width="2"/><circle cx="840" cy="12" r="5" fill="#ff9aa2" stroke="#1c1b33" stroke-width="2"/><circle cx="860" cy="12" r="5" fill="#ffd43b" stroke="#1c1b33" stroke-width="2"/><circle cx="880" cy="12" r="5" fill="#36d6a0" stroke="#1c1b33" stroke-width="2"/><circle cx="900" cy="12" r="5" fill="#8fd3ff" stroke="#1c1b33" stroke-width="2"/><circle cx="920" cy="12" r="5" fill="#c3b1ff" stroke="#1c1b33" stroke-width="2"/><circle cx="940" cy="12" r="5" fill="#ff6a3d" stroke="#1c1b33" stroke-width="2"/><circle cx="960" cy="12" r="5" fill="#ff9aa2" stroke="#1c1b33" stroke-width="2"/><circle cx="980" cy="12" r="5" fill="#ffd43b" stroke="#1c1b33" stroke-width="2"/><circle cx="1000" cy="12" r="5" fill="#36d6a0" stroke="#1c1b33" stroke-width="2"/><circle cx="1020" cy="12" r="5" fill="#8fd3ff" stroke="#1c1b33" stroke-width="2"/><circle cx="1040" cy="12" r="5" fill="#c3b1ff" stroke="#1c1b33" stroke-width="2"/><circle cx="1060" cy="12" r="5" fill="#ff6a3d" stroke="#1c1b33" stroke-width="2"/><circle cx="1080" cy="12" r="5" fill="#ff9aa2" stroke="#1c1b33" stroke-width="2"/><circle cx="1100" cy="12" r="5" fill="#ffd43b" stroke="#1c1b33" stroke-width="2"/><circle cx="1120" cy="12" r="5" fill="#36d6a0" stroke="#1c1b33" stroke-width="2"/><circle cx="1140" cy="12" r="5" fill="#8fd3ff" stroke="#1c1b33" stroke-width="2"/><circle cx="1160" cy="12" r="5" fill="#c3b1ff" stroke="#1c1b33" stroke-width="2"/><circle cx="1180" cy="12" r="5" fill="#ff6a3d" stroke="#1c1b33" stroke-width="2"/><circle cx="1200" cy="12" r="5" fill="#ff9aa2" stroke="#1c1b33" stroke-width="2"/></svg>